<?xml version="1.0" encoding="UTF-8"?><svg id="Layer_1" xmlns="http://www.w3.org/2000/svg" viewBox="0 0 221.26 165.57"><path d="m15.32.14l7.91,14.48c6.73,11.86,9.36,16.76,22.45,16.92h9.77s48.31,87.98,48.31,87.98c3.67,6.6,6.46,6.81,17.56,6.81h26.56L82.44,8.76C78.77,1.45,75.91.34,67.71.17c-17.35-.36-35.01-.03-52.39-.03" style="fill:#231f20;"/><path d="m155.85,119.54c3.62,6.6,6.41,6.81,16.79,6.81h27.28c-19-34.3-46.63-85.69-66.53-119.5C129.72.26,126.93.04,115.83.04h-26.56c19.51,34.3,47.59,84.91,66.58,119.5" style="fill:#231f20;"/><path d="m53.66,119.5c-3.62,6.6-6.41,6.81-17.51,6.81H9.6L53.06,48.87l20.19,36.8-19.59,33.82Z" style="fill:#231f20;"/><path d="m189.18,138.62c.23-.23.53-.34.9-.34h23.14c1.31,0,2.45.17,3.44.51,1.02.35,1.87.88,2.57,1.6h0s0,0,0,0c.68.71,1.18,1.55,1.52,2.51.33.95.5,2.02.5,3.19v11.41c0,1.18-.17,2.24-.5,3.19-.34.96-.84,1.8-1.52,2.52-.69.74-1.55,1.28-2.57,1.65-.99.35-2.14.53-3.45.53h-23.14c-.37,0-.67-.11-.9-.33-.23-.23-.34-.52-.34-.9v-24.64c0-.38.11-.68.34-.9m24.94,20.27c.18-.21.26-.64.26-1.38v-11.41c0-.68-.07-1.09-.23-1.29l-.02-.02c-.14-.16-.44-.21-.9-.21h-17.5v14.54h17.5c.45,0,.75-.06.89-.22Z" style="fill:#231f20;"/><path d="m164.93,155.53l-.5-.84c-.92-1.55-2.08-3.53-4.69-7.89-3.2,5.34-4.21,7.05-5.16,8.64l-.02.04-.03.06h10.4Zm12.29,9.72c-.18.09-.39.14-.61.14h-4.96c-.52,0-.99-.33-1.39-1l-1.71-2.83h-17.62l-1.67,2.79-.02.04c-.17.28-.35.5-.53.66-.26.23-.54.34-.82.34h-5.01c-.22,0-.43-.05-.62-.14h0c-.17-.09-.31-.21-.41-.36-.11-.17-.17-.36-.17-.57,0-.17.04-.35.13-.54.01-.03.03-.06.04-.09l14.82-24.49h0c.15-.26.32-.46.49-.61.24-.21.51-.31.79-.31h3.56c.27,0,.53.11.78.31.16.14.33.34.49.6h0s14.82,24.47,14.82,24.47c.02.02.03.05.05.08.1.2.15.39.15.57,0,.21-.06.4-.17.57h0c-.1.16-.24.29-.42.38Z" style="fill:#231f20;"/><path d="m124.09,138.62c.23-.23.53-.34.9-.34h4.42s.01,0,.01,0h.03s.04,0,.04,0c.34.02.61.13.82.34.21.22.32.5.32.84h0s0,.05,0,.05v24.64c0,.36-.1.65-.31.87v.02s-.02,0-.02,0c-.23.23-.52.35-.89.35h-5.48c-.2,0-.4-.07-.62-.22h0s0,0,0,0c-.14-.09-.29-.21-.47-.35h0s-.03-.03-.03-.03l-18.37-17.48v16.84c0,.36-.11.65-.31.87v.02s-.02,0-.02,0c-.22.23-.52.35-.89.35h-4.42c-.34,0-.62-.09-.84-.28-.02-.02-.04-.04-.06-.06-.23-.23-.34-.53-.34-.9v-24.64c0-.38.11-.68.34-.9.23-.23.53-.34.9-.34h5.48c.19,0,.38.07.59.2l.03.02c.12.08.27.19.44.33.02.02.04.03.07.05l18.35,17.41v-16.77c0-.38.11-.68.34-.9" style="fill:#231f20;"/><path d="m55.8,138.65c1-.37,2.16-.55,3.48-.55h18.26c1.32,0,2.48.18,3.48.56,1.03.38,1.9.96,2.59,1.73h0s0,0,0,0c.67.76,1.18,1.65,1.51,2.66.33,1,.49,2.12.49,3.37v10.82c0,1.25-.17,2.37-.49,3.38-.33,1.02-.84,1.91-1.52,2.66-.7.78-1.56,1.36-2.59,1.74-1,.37-2.16.56-3.48.56h-18.26c-1.29,0-2.43-.18-3.43-.54l-.06-.02c-1.03-.38-1.89-.96-2.58-1.74h0c-.67-.75-1.18-1.64-1.51-2.66-.33-1-.49-2.13-.49-3.38v-10.82c0-1.25.17-2.37.49-3.37.33-1.02.84-1.91,1.51-2.67h0s0,0,0,0c.69-.77,1.55-1.34,2.57-1.72m22.85,19.81c.06-.31.09-.72.09-1.22v-10.82c0-.49-.03-.89-.09-1.2-.05-.26-.12-.45-.19-.56h0c-.05-.07-.14-.13-.25-.17-.17-.06-.39-.09-.67-.09h-18.26c-.45,0-.74.07-.89.28-.21.29-.29.84-.29,1.75v10.82c0,.91.09,1.47.3,1.77.15.21.44.29.89.29h18.26c.27,0,.49-.03.66-.1.11-.04.2-.1.25-.17h0c.08-.12.14-.31.19-.57Z" style="fill:#231f20;"/><path d="m31.02,138.56c.25-.19.52-.28.8-.28h6.24c.37,0,.68.11.9.34.23.23.34.53.34.9v24.64c0,.37-.11.67-.34.9h0c-.23.23-.53.34-.9.34h-4.4c-.36,0-.66-.11-.88-.32l-.02-.02h0s0,0,0,0c-.23-.23-.34-.53-.34-.9v-15.24l-9.7,15.6h0c-.15.25-.31.45-.49.59h0c-.24.19-.5.29-.79.29h-3.56c-.27,0-.53-.1-.77-.29h0,0c-.18-.14-.34-.34-.5-.59l-9.72-15.6v15.24c0,.36-.11.65-.31.87v.02s-.02,0-.02,0c-.23.23-.52.35-.89.35H1.24c-.34,0-.62-.1-.84-.29-.02-.02-.04-.03-.06-.05-.23-.23-.34-.53-.34-.9v-24.64c0-.38.11-.68.34-.9.23-.23.53-.34.9-.34h6.29c.28,0,.55.09.8.28.2.15.37.35.53.61l10.79,17.35,10.85-17.33h0c.15-.27.33-.48.52-.63" style="fill:#231f20;"/></svg>
